<?xml version="1.0" encoding="UTF-8" standalone="no"?>
<!DOCTYPE svg PUBLIC "-//W3C//DTD SVG 1.1//EN"
 "http://www.w3.org/Graphics/SVG/1.1/DTD/svg11.dtd">
<!-- Generated by graphviz version 2.40.1 (20161225.0304)
 -->
<!-- Title: workflow Pages: 1 -->
<svg width="1626pt" height="366pt"
 viewBox="0.00 0.00 1626.08 365.50" xmlns="http://www.w3.org/2000/svg" xmlns:xlink="http://www.w3.org/1999/xlink">
<g id="graph0" class="graph" transform="scale(1 1) rotate(0) translate(4 361.5)">
<title>workflow</title>
<polygon fill="#ffffff" stroke="transparent" points="-4,4 -4,-361.5 1622.0849,-361.5 1622.0849,4 -4,4"/>
<!-- place_2b020927d3c6eb407223a1baa3d6ce3597a3f88d -->
<g id="node1" class="node">
<title>place_2b020927d3c6eb407223a1baa3d6ce3597a3f88d</title>
<ellipse fill="#add8e6" stroke="#333333" cx="36" cy="-261.5" rx="36" ry="36"/>
<text text-anchor="middle" x="36" y="-259.3" font-family="Arial" font-size="9.00" fill="#000000">start</text>
</g>
<!-- transition_b6589fc6ab0dc82cf12099d1c2d40ab994e8410c -->
<g id="node9" class="node">
<title>transition_b6589fc6ab0dc82cf12099d1c2d40ab994e8410c</title>
<polygon fill="none" stroke="#333333" points="199,-352 108,-352 108,-261 199,-261 199,-352"/>
<text text-anchor="middle" x="153.5" y="-304.3" font-family="Arial" font-size="9.00" fill="#000000">selected_xls_data</text>
</g>
<!-- place_2b020927d3c6eb407223a1baa3d6ce3597a3f88d&#45;&gt;transition_b6589fc6ab0dc82cf12099d1c2d40ab994e8410c -->
<g id="edge1" class="edge">
<title>place_2b020927d3c6eb407223a1baa3d6ce3597a3f88d&#45;&gt;transition_b6589fc6ab0dc82cf12099d1c2d40ab994e8410c</title>
<path fill="none" stroke="#333333" d="M69.6708,-274.3952C80.1142,-278.3948 91.8592,-282.8929 103.1781,-287.2278"/>
<polygon fill="#333333" stroke="#333333" points="102.7027,-288.9196 107.9979,-289.0737 103.9545,-285.6511 102.7027,-288.9196"/>
</g>
<!-- transition_356a192b7913b04c54574d18c28d46e6395428ab -->
<g id="node10" class="node">
<title>transition_356a192b7913b04c54574d18c28d46e6395428ab</title>
<polygon fill="none" stroke="#333333" points="342,-261 235,-261 235,-154 342,-154 342,-261"/>
<text text-anchor="middle" x="288.5" y="-205.3" font-family="Arial" font-size="9.00" fill="#000000">selected_midmif_data</text>
</g>
<!-- place_2b020927d3c6eb407223a1baa3d6ce3597a3f88d&#45;&gt;transition_356a192b7913b04c54574d18c28d46e6395428ab -->
<g id="edge3" class="edge">
<title>place_2b020927d3c6eb407223a1baa3d6ce3597a3f88d&#45;&gt;transition_356a192b7913b04c54574d18c28d46e6395428ab</title>
<path fill="none" stroke="#333333" d="M71.3749,-253.9347C112.4465,-245.151 180.8144,-230.5298 229.8657,-220.0396"/>
<polygon fill="#333333" stroke="#333333" points="230.3258,-221.7309 234.8493,-218.9738 229.5938,-218.3083 230.3258,-221.7309"/>
</g>
<!-- place_646f2bbd20890a621387a4a62a92895a4974a62f -->
<g id="node2" class="node">
<title>place_646f2bbd20890a621387a4a62a92895a4974a62f</title>
<ellipse fill="none" stroke="#333333" cx="288.5" cy="-315.5" rx="36" ry="36"/>
<text text-anchor="middle" x="288.5" y="-313.3" font-family="Arial" font-size="9.00" fill="#000000">load_xls</text>
</g>
<!-- transition_da4b9237bacccdf19c0760cab7aec4a8359010b0 -->
<g id="node11" class="node">
<title>transition_da4b9237bacccdf19c0760cab7aec4a8359010b0</title>
<polygon fill="none" stroke="#333333" points="466.9594,-357.5 380.9594,-357.5 380.9594,-271.5 466.9594,-271.5 466.9594,-357.5"/>
<text text-anchor="middle" x="423.9594" y="-312.3" font-family="Arial" font-size="9.00" fill="#000000">selected_column</text>
</g>
<!-- place_646f2bbd20890a621387a4a62a92895a4974a62f&#45;&gt;transition_da4b9237bacccdf19c0760cab7aec4a8359010b0 -->
<g id="edge5" class="edge">
<title>place_646f2bbd20890a621387a4a62a92895a4974a62f&#45;&gt;transition_da4b9237bacccdf19c0760cab7aec4a8359010b0</title>
<path fill="none" stroke="#333333" d="M324.8006,-315.232C340.4254,-315.1167 358.9174,-314.9802 375.6745,-314.8565"/>
<polygon fill="#333333" stroke="#333333" points="375.8272,-316.6055 380.8141,-314.8185 375.8013,-313.1056 375.8272,-316.6055"/>
</g>
<!-- place_14979ebe968b43628b962f7e6f8937dc614aead5 -->
<g id="node3" class="node">
<title>place_14979ebe968b43628b962f7e6f8937dc614aead5</title>
<ellipse fill="none" stroke="#333333" cx="542.4188" cy="-310.5" rx="36" ry="36"/>
<text text-anchor="middle" x="542.4188" y="-308.3" font-family="Arial" font-size="9.00" fill="#000000">prepare_xls</text>
</g>
<!-- transition_1b6453892473a467d07372d45eb05abc2031647a -->
<g id="node13" class="node">
<title>transition_1b6453892473a467d07372d45eb05abc2031647a</title>
<polygon fill="none" stroke="#333333" points="708.9188,-349.5 614.9188,-349.5 614.9188,-255.5 708.9188,-255.5 708.9188,-349.5"/>
<text text-anchor="middle" x="661.9188" y="-300.3" font-family="Arial" font-size="9.00" fill="#000000">check_scalar_data</text>
</g>
<!-- place_14979ebe968b43628b962f7e6f8937dc614aead5&#45;&gt;transition_1b6453892473a467d07372d45eb05abc2031647a -->
<g id="edge9" class="edge">
<title>place_14979ebe968b43628b962f7e6f8937dc614aead5&#45;&gt;transition_1b6453892473a467d07372d45eb05abc2031647a</title>
<path fill="none" stroke="#333333" d="M578.597,-308.078C588.3968,-307.422 599.2041,-306.6985 609.6967,-305.996"/>
<polygon fill="#333333" stroke="#333333" points="609.9447,-307.7335 614.8166,-305.6533 609.7108,-304.2413 609.9447,-307.7335"/>
</g>
<!-- place_fb910bb0b2d33f13a1e5b2af57e01f5f5040bff2 -->
<g id="node4" class="node">
<title>place_fb910bb0b2d33f13a1e5b2af57e01f5f5040bff2</title>
<ellipse fill="none" stroke="#333333" cx="423.9594" cy="-207.5" rx="45.9188" ry="45.9188"/>
<text text-anchor="middle" x="423.9594" y="-205.3" font-family="Arial" font-size="9.00" fill="#000000">download_midmif</text>
</g>
<!-- transition_77de68daecd823babbb58edb1c8e14d7106e83bb -->
<g id="node12" class="node">
<title>transition_77de68daecd823babbb58edb1c8e14d7106e83bb</title>
<polygon fill="none" stroke="#333333" points="578.9188,-252 505.9188,-252 505.9188,-179 578.9188,-179 578.9188,-252"/>
<text text-anchor="middle" x="542.4188" y="-213.3" font-family="Arial" font-size="9.00" fill="#000000">uploaded_mif</text>
</g>
<!-- place_fb910bb0b2d33f13a1e5b2af57e01f5f5040bff2&#45;&gt;transition_77de68daecd823babbb58edb1c8e14d7106e83bb -->
<g id="edge7" class="edge">
<title>place_fb910bb0b2d33f13a1e5b2af57e01f5f5040bff2&#45;&gt;transition_77de68daecd823babbb58edb1c8e14d7106e83bb</title>
<path fill="none" stroke="#333333" d="M470.0981,-210.6159C480.1665,-211.2959 490.7661,-212.0117 500.6528,-212.6794"/>
<polygon fill="#333333" stroke="#333333" points="500.6447,-214.4327 505.7513,-213.0237 500.8806,-210.9407 500.6447,-214.4327"/>
</g>
<!-- place_c1f0c7968bacc24a64583a5bb348d75bdc2b0721 -->
<g id="node5" class="node">
<title>place_c1f0c7968bacc24a64583a5bb348d75bdc2b0721</title>
<ellipse fill="none" stroke="#333333" cx="785.1978" cy="-260.5" rx="40.0593" ry="40.0593"/>
<text text-anchor="middle" x="785.1978" y="-258.3" font-family="Arial" font-size="9.00" fill="#000000">calculate_rows</text>
</g>
<!-- transition_ac3478d69a3c81fa62e60f5c3696165a4e5e6ac4 -->
<g id="node14" class="node">
<title>transition_ac3478d69a3c81fa62e60f5c3696165a4e5e6ac4</title>
<polygon fill="none" stroke="#333333" points="984.4769,-322 861.4769,-322 861.4769,-199 984.4769,-199 984.4769,-322"/>
<text text-anchor="middle" x="922.9769" y="-258.3" font-family="Arial" font-size="9.00" fill="#000000">request_create_gkn_docs</text>
</g>
<!-- place_c1f0c7968bacc24a64583a5bb348d75bdc2b0721&#45;&gt;transition_ac3478d69a3c81fa62e60f5c3696165a4e5e6ac4 -->
<g id="edge11" class="edge">
<title>place_c1f0c7968bacc24a64583a5bb348d75bdc2b0721&#45;&gt;transition_ac3478d69a3c81fa62e60f5c3696165a4e5e6ac4</title>
<path fill="none" stroke="#333333" d="M825.7909,-260.5C835.4092,-260.5 845.9183,-260.5 856.3578,-260.5"/>
<polygon fill="#333333" stroke="#333333" points="856.4729,-262.2501 861.4728,-260.5 856.4728,-258.7501 856.4729,-262.2501"/>
</g>
<!-- place_66c819edf3ff3d79da9728f6f3d0bf5f63a1453a -->
<g id="node6" class="node">
<title>place_66c819edf3ff3d79da9728f6f3d0bf5f63a1453a</title>
<ellipse fill="none" stroke="#333333" cx="1072.1166" cy="-260.5" rx="51.7799" ry="51.7799"/>
<text text-anchor="middle" x="1072.1166" y="-258.3" font-family="Arial" font-size="9.00" fill="#000000">get_gkn_documents</text>
</g>
<!-- transition_c1dfd96eea8cc2b62785275bca38ac261256e278 -->
<g id="node15" class="node">
<title>transition_c1dfd96eea8cc2b62785275bca38ac261256e278</title>
<polygon fill="none" stroke="#333333" points="1258.2564,-301 1177.2564,-301 1177.2564,-220 1258.2564,-220 1258.2564,-301"/>
<text text-anchor="middle" x="1217.7564" y="-258.3" font-family="Arial" font-size="9.00" fill="#000000">query_docs_list</text>
</g>
<!-- place_66c819edf3ff3d79da9728f6f3d0bf5f63a1453a&#45;&gt;transition_c1dfd96eea8cc2b62785275bca38ac261256e278 -->
<g id="edge13" class="edge">
<title>place_66c819edf3ff3d79da9728f6f3d0bf5f63a1453a&#45;&gt;transition_c1dfd96eea8cc2b62785275bca38ac261256e278</title>
<path fill="none" stroke="#333333" d="M1123.4638,-254.0179C1139.2095,-253.6142 1156.4262,-253.6668 1171.7888,-254.1756"/>
<polygon fill="#333333" stroke="#333333" points="1171.8614,-255.9294 1176.9228,-254.3657 1171.991,-252.4318 1171.8614,-255.9294"/>
</g>
<!-- transition_902ba3cda1883801594b6e1b452790cc53948fda -->
<g id="node16" class="node">
<title>transition_902ba3cda1883801594b6e1b452790cc53948fda</title>
<polygon fill="none" stroke="#333333" points="1275.7564,-201.5 1159.7564,-201.5 1159.7564,-85.5 1275.7564,-85.5 1275.7564,-201.5"/>
<text text-anchor="middle" x="1217.7564" y="-141.3" font-family="Arial" font-size="9.00" fill="#000000">load_data_to_gkn_docs</text>
</g>
<!-- place_66c819edf3ff3d79da9728f6f3d0bf5f63a1453a&#45;&gt;transition_902ba3cda1883801594b6e1b452790cc53948fda -->
<g id="edge15" class="edge">
<title>place_66c819edf3ff3d79da9728f6f3d0bf5f63a1453a&#45;&gt;transition_902ba3cda1883801594b6e1b452790cc53948fda</title>
<path fill="none" stroke="#333333" d="M1112.6854,-227.909C1125.995,-217.2167 1141.106,-205.0773 1155.6359,-193.4046"/>
<polygon fill="#333333" stroke="#333333" points="1156.9148,-194.6221 1159.7167,-190.1263 1154.7227,-191.8935 1156.9148,-194.6221"/>
</g>
<!-- place_76e8a9cfe76d4008f493b242698dfd17227c036a -->
<g id="node7" class="node">
<title>place_76e8a9cfe76d4008f493b242698dfd17227c036a</title>
<ellipse fill="none" stroke="#333333" cx="1348.4207" cy="-143.5" rx="36.8292" ry="36.8292"/>
<text text-anchor="middle" x="1348.4207" y="-141.3" font-family="Arial" font-size="9.00" fill="#000000">review_result</text>
</g>
<!-- transition_fe5dbbcea5ce7e2988b8c69bcfdfde8904aabc1f -->
<g id="node17" class="node">
<title>transition_fe5dbbcea5ce7e2988b8c69bcfdfde8904aabc1f</title>
<polygon fill="none" stroke="#333333" points="1501.5849,-179.5 1429.5849,-179.5 1429.5849,-107.5 1501.5849,-107.5 1501.5849,-179.5"/>
<text text-anchor="middle" x="1465.5849" y="-141.3" font-family="Arial" font-size="9.00" fill="#000000">reset_errors</text>
</g>
<!-- place_76e8a9cfe76d4008f493b242698dfd17227c036a&#45;&gt;transition_fe5dbbcea5ce7e2988b8c69bcfdfde8904aabc1f -->
<g id="edge17" class="edge">
<title>place_76e8a9cfe76d4008f493b242698dfd17227c036a&#45;&gt;transition_fe5dbbcea5ce7e2988b8c69bcfdfde8904aabc1f</title>
<path fill="none" stroke="#333333" d="M1384.8499,-137.1987C1397.4222,-136.6652 1411.5909,-136.6075 1424.509,-137.0253"/>
<polygon fill="#333333" stroke="#333333" points="1424.5181,-138.7768 1429.5806,-137.2169 1424.6503,-135.2793 1424.5181,-138.7768"/>
</g>
<!-- transition_0ade7c2cf97f75d009975f4d720d1fa6c19f4897 -->
<g id="node18" class="node">
<title>transition_0ade7c2cf97f75d009975f4d720d1fa6c19f4897</title>
<polygon fill="none" stroke="#333333" points="1510.0849,-89 1421.0849,-89 1421.0849,0 1510.0849,0 1510.0849,-89"/>
<text text-anchor="middle" x="1465.5849" y="-42.3" font-family="Arial" font-size="9.00" fill="#000000">signed_gkn_docs</text>
</g>
<!-- place_76e8a9cfe76d4008f493b242698dfd17227c036a&#45;&gt;transition_0ade7c2cf97f75d009975f4d720d1fa6c19f4897 -->
<g id="edge19" class="edge">
<title>place_76e8a9cfe76d4008f493b242698dfd17227c036a&#45;&gt;transition_0ade7c2cf97f75d009975f4d720d1fa6c19f4897</title>
<path fill="none" stroke="#333333" d="M1376.4844,-119.787C1388.6132,-109.5386 1403.1633,-97.2442 1416.9553,-85.5904"/>
<polygon fill="#333333" stroke="#333333" points="1418.1329,-86.8865 1420.8226,-82.3227 1415.8739,-84.2131 1418.1329,-86.8865"/>
</g>
<!-- place_0c1355438ba24b46f88a450e30c168a6a56963f7 -->
<g id="node8" class="node">
<title>place_0c1355438ba24b46f88a450e30c168a6a56963f7</title>
<ellipse fill="none" stroke="#333333" cx="1582.0849" cy="-44.5" rx="36" ry="36"/>
<text text-anchor="middle" x="1582.0849" y="-42.3" font-family="Arial" font-size="9.00" fill="#000000">check_result</text>
</g>
<!-- transition_b6589fc6ab0dc82cf12099d1c2d40ab994e8410c&#45;&gt;place_646f2bbd20890a621387a4a62a92895a4974a62f -->
<g id="edge2" class="edge">
<title>transition_b6589fc6ab0dc82cf12099d1c2d40ab994e8410c&#45;&gt;place_646f2bbd20890a621387a4a62a92895a4974a62f</title>
<path fill="none" stroke="#333333" d="M199.2048,-309.547C214.7366,-310.5824 231.9929,-311.7329 247.1633,-312.7442"/>
<polygon fill="#333333" stroke="#333333" points="247.1172,-314.4949 252.2226,-313.0815 247.3501,-311.0027 247.1172,-314.4949"/>
</g>
<!-- transition_356a192b7913b04c54574d18c28d46e6395428ab&#45;&gt;place_fb910bb0b2d33f13a1e5b2af57e01f5f5040bff2 -->
<g id="edge4" class="edge">
<title>transition_356a192b7913b04c54574d18c28d46e6395428ab&#45;&gt;place_fb910bb0b2d33f13a1e5b2af57e01f5f5040bff2</title>
<path fill="none" stroke="#333333" d="M342.0371,-207.5C352.1131,-207.5 362.6277,-207.5 372.6341,-207.5"/>
<polygon fill="#333333" stroke="#333333" points="372.8155,-209.2501 377.8154,-207.5 372.8154,-205.7501 372.8155,-209.2501"/>
</g>
<!-- transition_da4b9237bacccdf19c0760cab7aec4a8359010b0&#45;&gt;place_14979ebe968b43628b962f7e6f8937dc614aead5 -->
<g id="edge6" class="edge">
<title>transition_da4b9237bacccdf19c0760cab7aec4a8359010b0&#45;&gt;place_14979ebe968b43628b962f7e6f8937dc614aead5</title>
<path fill="none" stroke="#333333" d="M467.0611,-313.0446C478.1903,-312.6688 490.1419,-312.2652 501.1739,-311.8927"/>
<polygon fill="#333333" stroke="#333333" points="501.2336,-313.6418 506.1717,-311.724 501.1154,-310.1438 501.2336,-313.6418"/>
</g>
<!-- transition_77de68daecd823babbb58edb1c8e14d7106e83bb&#45;&gt;place_c1f0c7968bacc24a64583a5bb348d75bdc2b0721 -->
<g id="edge8" class="edge">
<title>transition_77de68daecd823babbb58edb1c8e14d7106e83bb&#45;&gt;place_c1f0c7968bacc24a64583a5bb348d75bdc2b0721</title>
<path fill="none" stroke="#333333" d="M579.0281,-222.2857C622.2275,-230.2928 694.0389,-243.6034 740.4876,-252.2128"/>
<polygon fill="#333333" stroke="#333333" points="740.2261,-253.9441 745.4613,-253.1347 740.864,-250.5027 740.2261,-253.9441"/>
</g>
<!-- transition_1b6453892473a467d07372d45eb05abc2031647a&#45;&gt;place_c1f0c7968bacc24a64583a5bb348d75bdc2b0721 -->
<g id="edge10" class="edge">
<title>transition_1b6453892473a467d07372d45eb05abc2031647a&#45;&gt;place_c1f0c7968bacc24a64583a5bb348d75bdc2b0721</title>
<path fill="none" stroke="#333333" d="M709.2291,-286.3818C720.0636,-282.6906 731.5233,-278.7864 742.1663,-275.1604"/>
<polygon fill="#333333" stroke="#333333" points="742.8252,-276.7848 746.9937,-273.5158 741.6965,-273.4718 742.8252,-276.7848"/>
</g>
<!-- transition_ac3478d69a3c81fa62e60f5c3696165a4e5e6ac4&#45;&gt;place_66c819edf3ff3d79da9728f6f3d0bf5f63a1453a -->
<g id="edge12" class="edge">
<title>transition_ac3478d69a3c81fa62e60f5c3696165a4e5e6ac4&#45;&gt;place_66c819edf3ff3d79da9728f6f3d0bf5f63a1453a</title>
<path fill="none" stroke="#333333" d="M984.4988,-260.5C994.6114,-260.5 1005.0544,-260.5 1015.0524,-260.5"/>
<polygon fill="#333333" stroke="#333333" points="1015.2361,-262.2501 1020.2361,-260.5 1015.236,-258.7501 1015.2361,-262.2501"/>
</g>
<!-- transition_c1dfd96eea8cc2b62785275bca38ac261256e278&#45;&gt;place_66c819edf3ff3d79da9728f6f3d0bf5f63a1453a -->
<g id="edge14" class="edge">
<title>transition_c1dfd96eea8cc2b62785275bca38ac261256e278&#45;&gt;place_66c819edf3ff3d79da9728f6f3d0bf5f63a1453a</title>
<path fill="none" stroke="#333333" d="M1176.9228,-266.6343C1162.0219,-267.2463 1144.891,-267.4021 1128.8552,-267.1015"/>
<polygon fill="#333333" stroke="#333333" points="1128.5013,-265.3433 1123.4638,-266.9821 1128.4238,-268.8425 1128.5013,-265.3433"/>
</g>
<!-- transition_902ba3cda1883801594b6e1b452790cc53948fda&#45;&gt;place_76e8a9cfe76d4008f493b242698dfd17227c036a -->
<g id="edge16" class="edge">
<title>transition_902ba3cda1883801594b6e1b452790cc53948fda&#45;&gt;place_76e8a9cfe76d4008f493b242698dfd17227c036a</title>
<path fill="none" stroke="#333333" d="M1275.8286,-143.5C1286.1599,-143.5 1296.7365,-143.5 1306.5076,-143.5"/>
<polygon fill="#333333" stroke="#333333" points="1306.5383,-145.2501 1311.5382,-143.5 1306.5382,-141.7501 1306.5383,-145.2501"/>
</g>
<!-- transition_fe5dbbcea5ce7e2988b8c69bcfdfde8904aabc1f&#45;&gt;place_76e8a9cfe76d4008f493b242698dfd17227c036a -->
<g id="edge18" class="edge">
<title>transition_fe5dbbcea5ce7e2988b8c69bcfdfde8904aabc1f&#45;&gt;place_76e8a9cfe76d4008f493b242698dfd17227c036a</title>
<path fill="none" stroke="#333333" d="M1429.5806,-149.7831C1417.0447,-150.3273 1402.8803,-150.3958 1389.9343,-149.9886"/>
<polygon fill="#333333" stroke="#333333" points="1389.911,-148.2367 1384.8499,-149.8013 1389.7821,-151.7343 1389.911,-148.2367"/>
</g>
<!-- transition_0ade7c2cf97f75d009975f4d720d1fa6c19f4897&#45;&gt;place_0c1355438ba24b46f88a450e30c168a6a56963f7 -->
<g id="edge20" class="edge">
<title>transition_0ade7c2cf97f75d009975f4d720d1fa6c19f4897&#45;&gt;place_0c1355438ba24b46f88a450e30c168a6a56963f7</title>
<path fill="none" stroke="#333333" d="M1510.2937,-44.5C1520.3479,-44.5 1530.9719,-44.5 1540.8753,-44.5"/>
<polygon fill="#333333" stroke="#333333" points="1540.9816,-46.2501 1545.9816,-44.5 1540.9816,-42.7501 1540.9816,-46.2501"/>
</g>
</g>
</svg>
