<?xml version="1.0" encoding="UTF-8"?>
<!DOCTYPE svg PUBLIC "-//W3C//DTD SVG 1.1//EN" "http://www.w3.org/Graphics/SVG/1.1/DTD/svg11.dtd">
<!-- Creator: CorelDRAW 2018 (64-Bit Оценочная версия) -->
<svg xmlns="http://www.w3.org/2000/svg" xml:space="preserve" width="218px" height="98px" version="1.1" shape-rendering="geometricPrecision" text-rendering="geometricPrecision" image-rendering="optimizeQuality" fill-rule="evenodd" clip-rule="evenodd"
viewBox="0 0 218 98"
 xmlns:xlink="http://www.w3.org/1999/xlink">
 <g id="Слой_x0020_1">
  <metadata id="CorelCorpID_0Corel-Layer"/>
  <path fill="#0B74BA" d="M0.95 32.02c0.51,-15.23 12.77,-27.49 28.01,-28l0 28 -28.01 0z"/>
  <path fill="#6FB63C" d="M58.94 34c-0.51,15.23 -12.77,27.49 -28.01,28l0 -28 28.01 0z"/>
  <path fill="#DAE0E3" d="M30.93 4.02c15.24,0.51 27.5,12.77 28.01,28l-28.01 0 0 -28z"/>
  <path fill="#DAE0E3" d="M0.95 91.98c15.24,-0.51 27.5,-12.77 28.01,-28l-28.01 0 0 28z"/>
  <polygon fill="#DAE0E3" points="0.95,34 28.96,34 28.96,62 0.95,62 "/>
  <path fill="#0B74BA" d="M71.39 25.91l0 6.12 -4.04 0 0 -17.77 6.33 0c4.53,0 6.79,1.88 6.79,5.66 0,1.79 -0.65,3.23 -1.95,4.34 -1.3,1.1 -3.03,1.65 -5.2,1.65l-1.93 0zm0 -8.58l0 0 0 5.54 1.59 0c2.15,0 3.23,-0.93 3.23,-2.8 0,-1.83 -1.08,-2.74 -3.23,-2.74l-1.59 0zm20.62 15.01l0 0c-2.57,0 -4.66,-0.83 -6.28,-2.48 -1.62,-1.66 -2.43,-3.82 -2.43,-6.48 0,-2.81 0.82,-5.08 2.47,-6.82 1.64,-1.73 3.82,-2.61 6.53,-2.61 2.56,0 4.64,0.84 6.22,2.5 1.58,1.66 2.37,3.85 2.37,6.57 0,2.79 -0.82,5.05 -2.46,6.76 -1.64,1.71 -3.78,2.56 -6.42,2.56zm0.18 -14.94l0 0c-1.42,0 -2.55,0.53 -3.38,1.59 -0.83,1.05 -1.25,2.44 -1.25,4.18 0,1.76 0.42,3.15 1.25,4.18 0.83,1.02 1.93,1.54 3.28,1.54 1.39,0 2.5,-0.5 3.32,-1.5 0.81,-1 1.22,-2.38 1.22,-4.14 0,-1.85 -0.39,-3.29 -1.18,-4.31 -0.8,-1.02 -1.88,-1.54 -3.26,-1.54zm25.98 14l0 0c-1.31,0.63 -3.02,0.94 -5.14,0.94 -2.75,0 -4.91,-0.8 -6.49,-2.4 -1.58,-1.6 -2.37,-3.74 -2.37,-6.41 0,-2.85 0.89,-5.15 2.66,-6.92 1.77,-1.77 4.08,-2.66 6.91,-2.66 1.75,0 3.23,0.22 4.43,0.67l0 3.85c-1.2,-0.71 -2.57,-1.07 -4.11,-1.07 -1.68,0 -3.05,0.53 -4.08,1.58 -1.03,1.05 -1.55,2.47 -1.55,4.27 0,1.71 0.49,3.08 1.46,4.1 0.98,1.02 2.29,1.54 3.95,1.54 1.57,0 3.02,-0.39 4.33,-1.15l0 3.66zm8.6 -5.49l0 0 0 6.12 -4.05 0 0 -17.77 6.34 0c4.53,0 6.79,1.88 6.79,5.66 0,1.79 -0.66,3.23 -1.95,4.34 -1.3,1.1 -3.03,1.65 -5.2,1.65l-1.93 0zm0 -8.58l0 0 0 5.54 1.59 0c2.15,0 3.23,-0.93 3.23,-2.8 0,-1.83 -1.08,-2.74 -3.23,-2.74l-1.59 0zm23.9 14.7l0 0 -10.77 0 0 -17.77 10.36 0 0 3.25 -6.31 0 0 3.96 5.87 0 0 3.25 -5.87 0 0 4.06 6.72 0 0 3.25zm15.07 0l0 0 -10.76 0 0 -17.77 10.35 0 0 3.25 -6.31 0 0 3.96 5.87 0 0 3.25 -5.87 0 0 4.06 6.72 0 0 3.25zm17.18 -0.63l0 0c-1.31,0.63 -3.02,0.94 -5.13,0.94 -2.75,0 -4.92,-0.8 -6.5,-2.4 -1.58,-1.6 -2.36,-3.74 -2.36,-6.41 0,-2.85 0.88,-5.15 2.65,-6.92 1.78,-1.77 4.08,-2.66 6.91,-2.66 1.75,0 3.23,0.22 4.43,0.67l0 3.85c-1.2,-0.71 -2.57,-1.07 -4.11,-1.07 -1.68,0 -3.04,0.53 -4.08,1.58 -1.03,1.05 -1.55,2.47 -1.55,4.27 0,1.71 0.49,3.08 1.47,4.1 0.97,1.02 2.29,1.54 3.94,1.54 1.58,0 3.02,-0.39 4.33,-1.15l0 3.66zm17.16 -13.89l0 0 -5.12 0 0 14.52 -4.05 0 0 -14.52 -5.1 0 0 -3.25 14.27 0 0 3.25zm7.9 8.4l0 0 0 6.12 -4.05 0 0 -17.77 6.34 0c4.52,0 6.78,1.88 6.78,5.66 0,1.79 -0.65,3.23 -1.95,4.34 -1.3,1.1 -3.03,1.65 -5.2,1.65l-1.92 0zm0 -8.58l0 0 0 5.54 1.59 0c2.15,0 3.23,-0.93 3.23,-2.8 0,-1.83 -1.08,-2.74 -3.23,-2.74l-1.59 0z"/>
  <g id="_2092025403584">
   <path fill="#0B74BA" fill-rule="nonzero" d="M71.03 43.96l0 0.94 -1.2 0 0 -0.94 -0.14 0c-0.88,0 -1.6,-0.29 -2.18,-0.87 -0.57,-0.58 -0.85,-1.29 -0.85,-2.14 0,-0.81 0.27,-1.5 0.83,-2.06 0.56,-0.55 1.27,-0.83 2.14,-0.83l0.2 0 0 -0.91 1.2 0 0 0.91 0.16 0c0.89,0 1.61,0.27 2.17,0.82 0.56,0.55 0.84,1.24 0.84,2.07 0,0.84 -0.28,1.55 -0.86,2.14 -0.57,0.58 -1.29,0.87 -2.17,0.87l-0.14 0zm-1.2 -1l0 0 0 -3.92 -0.11 0c-0.53,0 -0.96,0.18 -1.28,0.54 -0.33,0.36 -0.49,0.82 -0.49,1.39 0,0.61 0.16,1.09 0.48,1.45 0.32,0.36 0.75,0.54 1.28,0.54l0.12 0zm1.2 -3.92l0 0 0 3.92 0.12 0c0.53,0 0.96,-0.18 1.28,-0.54 0.32,-0.36 0.48,-0.85 0.48,-1.45 0,-0.58 -0.16,-1.05 -0.48,-1.4 -0.32,-0.35 -0.75,-0.53 -1.29,-0.53l-0.11 0z"/>
   <path fill="#0B74BA" fill-rule="nonzero" d="M79.78 42.52l-3.68 0c0.02,0.49 0.17,0.88 0.46,1.15 0.3,0.27 0.7,0.4 1.21,0.4 0.58,0 1.1,-0.17 1.59,-0.51l0 0.98c-0.5,0.31 -1.14,0.47 -1.95,0.47 -0.79,0 -1.42,-0.25 -1.87,-0.74 -0.45,-0.49 -0.67,-1.18 -0.67,-2.06 0,-0.84 0.25,-1.53 0.74,-2.05 0.5,-0.53 1.11,-0.8 1.85,-0.8 0.74,0 1.31,0.24 1.71,0.72 0.4,0.47 0.61,1.13 0.61,1.97l0 0.47zm-1.18 -0.87l0 0c-0.01,-0.44 -0.11,-0.78 -0.31,-1.02 -0.21,-0.24 -0.49,-0.37 -0.84,-0.37 -0.36,0 -0.65,0.13 -0.9,0.39 -0.24,0.26 -0.39,0.59 -0.45,1l2.5 0z"/>
   <path fill="#0B74BA" fill-rule="nonzero" d="M85.93 46.84l-1.02 0 0 -1.96 -3.84 0 0 1.96 -1 0 0 -2.89 0.48 0c0.86,-1.27 1.29,-2.76 1.31,-4.46l3.24 0 0 4.46 0.83 0 0 2.89zm-2.05 -2.89l0 0 0 -3.53 -1.03 0c-0.08,1.3 -0.44,2.48 -1.07,3.53l2.1 0z"/>
   <path fill="#0B74BA" fill-rule="nonzero" d="M91.4 42.52l-3.67 0c0.02,0.49 0.17,0.88 0.46,1.15 0.3,0.27 0.7,0.4 1.21,0.4 0.57,0 1.1,-0.17 1.58,-0.51l0 0.98c-0.49,0.31 -1.14,0.47 -1.94,0.47 -0.8,0 -1.42,-0.25 -1.87,-0.74 -0.45,-0.49 -0.67,-1.18 -0.67,-2.06 0,-0.84 0.24,-1.53 0.74,-2.05 0.5,-0.53 1.11,-0.8 1.85,-0.8 0.74,0 1.31,0.24 1.71,0.72 0.4,0.47 0.6,1.13 0.6,1.97l0 0.47zm-1.17 -0.87l0 0c-0.01,-0.44 -0.11,-0.78 -0.31,-1.02 -0.21,-0.24 -0.49,-0.37 -0.85,-0.37 -0.35,0 -0.64,0.13 -0.89,0.39 -0.24,0.26 -0.39,0.59 -0.45,1l2.5 0z"/>
   <path fill="#0B74BA" fill-rule="nonzero" d="M93.64 44.08l-0.02 0 0 3.28 -1.22 0 0 -7.87 1.22 0 0 0.95 0.02 0c0.42,-0.72 1.03,-1.08 1.83,-1.08 0.68,0 1.22,0.25 1.6,0.73 0.38,0.48 0.57,1.12 0.57,1.93 0,0.9 -0.21,1.62 -0.64,2.16 -0.44,0.54 -1.03,0.81 -1.77,0.81 -0.69,0 -1.22,-0.3 -1.59,-0.91zm-0.03 -2.12l0 0 0 0.67c0,0.39 0.12,0.72 0.37,1 0.25,0.27 0.57,0.41 0.96,0.41 0.45,0 0.81,-0.18 1.06,-0.53 0.26,-0.35 0.39,-0.85 0.39,-1.48 0,-0.53 -0.12,-0.94 -0.36,-1.24 -0.24,-0.3 -0.57,-0.45 -0.98,-0.45 -0.43,0 -0.78,0.15 -1.05,0.46 -0.26,0.31 -0.39,0.7 -0.39,1.16z"/>
   <path fill="#0B74BA" fill-rule="nonzero" d="M102.73 44.88l-1.19 0 0 -0.84 -0.02 0c-0.37,0.64 -0.92,0.97 -1.63,0.97 -0.53,0 -0.95,-0.15 -1.25,-0.43 -0.3,-0.29 -0.45,-0.67 -0.45,-1.15 0,-1.01 0.59,-1.61 1.76,-1.78l1.6 -0.22c0,-0.77 -0.37,-1.16 -1.1,-1.16 -0.64,0 -1.22,0.23 -1.73,0.67l0 -1.07c0.57,-0.34 1.22,-0.51 1.97,-0.51 1.36,0 2.04,0.67 2.04,2.02l0 3.5zm-1.18 -2.65l0 0 -1.13 0.16c-0.35,0.05 -0.62,0.13 -0.79,0.26 -0.18,0.12 -0.27,0.34 -0.27,0.65 0,0.23 0.08,0.42 0.24,0.56 0.17,0.15 0.39,0.22 0.66,0.22 0.37,0 0.68,-0.13 0.92,-0.39 0.25,-0.26 0.37,-0.59 0.37,-0.99l0 -0.47z"/>
   <path fill="#0B74BA" fill-rule="nonzero" d="M108.5 44.88l-1.22 0 0 -4.46 -1.1 0c-0.16,1.67 -0.42,2.84 -0.8,3.52 -0.37,0.67 -0.87,1.01 -1.5,1.01 -0.21,0 -0.39,-0.03 -0.55,-0.09l0 -0.91c0.13,0.06 0.26,0.09 0.4,0.09 0.75,0 1.24,-1.52 1.45,-4.55l3.32 0 0 5.39z"/>
   <path fill="#0B74BA" fill-rule="nonzero" d="M109.92 44.88l0 -5.39 1.22 0 0 1.99 1.44 0c0.57,0 1.02,0.15 1.36,0.44 0.33,0.29 0.5,0.7 0.5,1.22 0,0.54 -0.17,0.96 -0.5,1.27 -0.34,0.32 -0.76,0.47 -1.27,0.47l-2.75 0zm1.22 -2.52l0 0 0 1.64 1.12 0c0.61,0 0.92,-0.28 0.92,-0.85 0,-0.53 -0.31,-0.79 -0.93,-0.79l-1.11 0z"/>
   <polygon fill="#0B74BA" fill-rule="nonzero" points="120.25,44.88 119.02,44.88 119.02,42.52 116.67,42.52 116.67,44.88 115.45,44.88 115.45,39.49 116.67,39.49 116.67,41.61 119.02,41.61 119.02,39.49 120.25,39.49 "/>
   <path fill="#0B74BA" fill-rule="nonzero" d="M125.8 44.88l-1.18 0 0 -0.84 -0.03 0c-0.37,0.64 -0.91,0.97 -1.63,0.97 -0.53,0 -0.95,-0.15 -1.25,-0.43 -0.3,-0.29 -0.45,-0.67 -0.45,-1.15 0,-1.01 0.59,-1.61 1.76,-1.78l1.6 -0.22c0,-0.77 -0.36,-1.16 -1.09,-1.16 -0.65,0 -1.22,0.23 -1.74,0.67l0 -1.07c0.57,-0.34 1.22,-0.51 1.97,-0.51 1.36,0 2.04,0.67 2.04,2.02l0 3.5zm-1.18 -2.65l0 0 -1.13 0.16c-0.35,0.05 -0.62,0.13 -0.79,0.26 -0.18,0.12 -0.27,0.34 -0.27,0.65 0,0.23 0.08,0.42 0.25,0.56 0.16,0.15 0.38,0.22 0.65,0.22 0.37,0 0.68,-0.13 0.93,-0.39 0.24,-0.26 0.36,-0.59 0.36,-0.99l0 -0.47z"/>
   <path fill="#0B74BA" fill-rule="nonzero" d="M131.27 44.88l-1.22 0 0 -2.13 -0.62 0c-0.31,0 -0.58,0.27 -0.82,0.81l-0.65 1.32 -1.38 0 0.85 -1.6c0.24,-0.41 0.54,-0.69 0.88,-0.82 -0.43,-0.06 -0.76,-0.21 -0.99,-0.46 -0.22,-0.25 -0.34,-0.57 -0.34,-0.95 0,-0.48 0.2,-0.86 0.58,-1.14 0.39,-0.28 0.9,-0.42 1.55,-0.42l2.16 0 0 5.39zm-1.22 -2.97l0 0 0 -1.53 -0.84 0c-0.66,0 -0.99,0.25 -0.99,0.75 0,0.52 0.33,0.78 0.98,0.78l0.85 0z"/>
   <polygon fill="#0B74BA" fill-rule="nonzero" points="71.91,56.23 70.36,56.23 68.26,53.6 68.24,53.6 68.24,56.23 67.01,56.23 67.01,50.84 68.24,50.84 68.24,53.32 68.26,53.32 70.24,50.84 71.73,50.84 69.49,53.41 "/>
   <path fill="#0B74BA" fill-rule="nonzero" d="M76.64 56.23l-1.19 0 0 -0.85 -0.02 0c-0.37,0.65 -0.92,0.97 -1.64,0.97 -0.53,0 -0.94,-0.14 -1.24,-0.43 -0.3,-0.29 -0.45,-0.67 -0.45,-1.14 0,-1.02 0.58,-1.61 1.76,-1.78l1.6 -0.23c0,-0.77 -0.37,-1.15 -1.1,-1.15 -0.64,0 -1.22,0.22 -1.73,0.66l0 -1.06c0.56,-0.34 1.22,-0.51 1.96,-0.51 1.36,0 2.05,0.67 2.05,2.01l0 3.51zm-1.18 -2.65l0 0 -1.14 0.16c-0.35,0.04 -0.61,0.13 -0.79,0.25 -0.17,0.13 -0.26,0.34 -0.26,0.66 0,0.23 0.08,0.41 0.24,0.56 0.17,0.14 0.38,0.22 0.66,0.22 0.37,0 0.68,-0.14 0.92,-0.4 0.24,-0.26 0.37,-0.59 0.37,-0.98l0 -0.47z"/>
   <path fill="#0B74BA" fill-rule="nonzero" d="M83.11 58.19l-1.02 0 0 -1.96 -3.83 0 0 1.96 -1.01 0 0 -2.9 0.48 0c0.86,-1.27 1.3,-2.75 1.31,-4.45l3.24 0 0 4.45 0.83 0 0 2.9zm-2.05 -2.9l0 0 0 -3.53 -1.02 0c-0.09,1.31 -0.45,2.48 -1.08,3.53l2.1 0z"/>
   <path fill="#0B74BA" fill-rule="nonzero" d="M88.16 56.23l-1.18 0 0 -0.85 -0.02 0c-0.37,0.65 -0.92,0.97 -1.64,0.97 -0.53,0 -0.94,-0.14 -1.24,-0.43 -0.3,-0.29 -0.45,-0.67 -0.45,-1.14 0,-1.02 0.58,-1.61 1.75,-1.78l1.6 -0.23c0,-0.77 -0.36,-1.15 -1.09,-1.15 -0.64,0 -1.22,0.22 -1.74,0.66l0 -1.06c0.57,-0.34 1.23,-0.51 1.97,-0.51 1.36,0 2.04,0.67 2.04,2.01l0 3.51zm-1.18 -2.65l0 0 -1.13 0.16c-0.35,0.04 -0.61,0.13 -0.79,0.25 -0.18,0.13 -0.26,0.34 -0.26,0.66 0,0.23 0.08,0.41 0.24,0.56 0.16,0.14 0.38,0.22 0.66,0.22 0.37,0 0.67,-0.14 0.92,-0.4 0.24,-0.26 0.36,-0.59 0.36,-0.98l0 -0.47z"/>
   <path fill="#0B74BA" fill-rule="nonzero" d="M93.34 55.98c-0.43,0.25 -0.94,0.37 -1.53,0.37 -0.8,0 -1.45,-0.25 -1.94,-0.75 -0.49,-0.5 -0.74,-1.15 -0.74,-1.94 0,-0.89 0.27,-1.6 0.8,-2.14 0.52,-0.54 1.23,-0.81 2.11,-0.81 0.49,0 0.93,0.09 1.3,0.26l0 1.13c-0.37,-0.28 -0.77,-0.42 -1.2,-0.42 -0.51,0 -0.94,0.18 -1.27,0.53 -0.32,0.35 -0.49,0.8 -0.49,1.37 0,0.56 0.16,1 0.47,1.32 0.31,0.32 0.72,0.48 1.25,0.48 0.43,0 0.85,-0.15 1.24,-0.46l0 1.06z"/>
   <polygon fill="#0B74BA" fill-rule="nonzero" points="98.05,51.81 96.51,51.81 96.51,56.23 95.29,56.23 95.29,51.81 93.74,51.81 93.74,50.84 98.05,50.84 "/>
   <path fill="#0B74BA" fill-rule="nonzero" d="M100.08 55.43l-0.02 0 0 3.27 -1.22 0 0 -7.86 1.22 0 0 0.94 0.02 0c0.42,-0.71 1.03,-1.07 1.83,-1.07 0.69,0 1.22,0.24 1.6,0.72 0.39,0.48 0.58,1.13 0.58,1.94 0,0.9 -0.22,1.62 -0.65,2.16 -0.43,0.54 -1.02,0.81 -1.77,0.81 -0.69,0 -1.22,-0.31 -1.59,-0.91zm-0.03 -2.13l0 0 0 0.67c0,0.4 0.13,0.73 0.38,1 0.25,0.28 0.57,0.41 0.95,0.41 0.45,0 0.81,-0.17 1.07,-0.53 0.26,-0.35 0.38,-0.84 0.38,-1.47 0,-0.53 -0.12,-0.95 -0.36,-1.25 -0.24,-0.3 -0.56,-0.45 -0.97,-0.45 -0.44,0 -0.79,0.16 -1.05,0.47 -0.27,0.31 -0.4,0.69 -0.4,1.15z"/>
   <path fill="#0B74BA" fill-rule="nonzero" d="M107.55 56.35c-0.83,0 -1.49,-0.25 -1.99,-0.75 -0.5,-0.51 -0.75,-1.17 -0.75,-2.01 0,-0.9 0.26,-1.61 0.78,-2.12 0.52,-0.51 1.22,-0.76 2.09,-0.76 0.85,0 1.5,0.25 1.97,0.74 0.47,0.5 0.71,1.18 0.71,2.06 0,0.86 -0.26,1.55 -0.76,2.07 -0.51,0.51 -1.19,0.77 -2.05,0.77zm0.06 -4.67l0 0c-0.48,0 -0.86,0.17 -1.13,0.5 -0.28,0.34 -0.42,0.8 -0.42,1.38 0,0.57 0.14,1.01 0.42,1.34 0.28,0.32 0.66,0.48 1.13,0.48 0.48,0 0.85,-0.16 1.11,-0.47 0.25,-0.32 0.38,-0.78 0.38,-1.37 0,-0.59 -0.13,-1.05 -0.38,-1.37 -0.26,-0.33 -0.63,-0.49 -1.11,-0.49z"/>
   <path fill="#0B74BA" fill-rule="nonzero" d="M111.43 56.23l0 -5.39 2.57 0c0.58,0 1.04,0.11 1.37,0.35 0.34,0.23 0.51,0.56 0.51,0.96 0,0.69 -0.35,1.11 -1.06,1.26 0.84,0.1 1.26,0.51 1.26,1.24 0,0.44 -0.18,0.82 -0.53,1.12 -0.36,0.3 -0.8,0.46 -1.32,0.46l-2.8 0zm1.22 -4.53l0 0 0 1.34 1.08 0c0.61,0 0.91,-0.23 0.91,-0.71 0,-0.42 -0.26,-0.63 -0.8,-0.63l-1.19 0zm0 2.19l0 0 0 1.47 1.25 0c0.62,0 0.94,-0.26 0.94,-0.76 0,-0.47 -0.34,-0.71 -1.02,-0.71l-1.17 0z"/>
   <path fill="#0B74BA" fill-rule="nonzero" d="M121.34 56.23l-1.18 0 0 -0.85 -0.02 0c-0.38,0.65 -0.92,0.97 -1.64,0.97 -0.53,0 -0.95,-0.14 -1.24,-0.43 -0.31,-0.29 -0.46,-0.67 -0.46,-1.14 0,-1.02 0.59,-1.61 1.76,-1.78l1.6 -0.23c0,-0.77 -0.36,-1.15 -1.09,-1.15 -0.64,0 -1.22,0.22 -1.74,0.66l0 -1.06c0.57,-0.34 1.23,-0.51 1.97,-0.51 1.36,0 2.04,0.67 2.04,2.01l0 3.51zm-1.18 -2.65l0 0 -1.13 0.16c-0.35,0.04 -0.61,0.13 -0.79,0.25 -0.18,0.13 -0.27,0.34 -0.27,0.66 0,0.23 0.09,0.41 0.25,0.56 0.16,0.14 0.38,0.22 0.65,0.22 0.37,0 0.68,-0.14 0.93,-0.4 0.24,-0.26 0.36,-0.59 0.36,-0.98l0 -0.47z"/>
   <path fill="#0B74BA" fill-rule="nonzero" d="M126.81 56.23l-1.21 0 0 -2.14 -0.63 0c-0.3,0 -0.58,0.27 -0.82,0.82l-0.64 1.32 -1.39 0 0.85 -1.6c0.25,-0.42 0.54,-0.69 0.88,-0.83 -0.43,-0.05 -0.76,-0.2 -0.98,-0.46 -0.23,-0.25 -0.34,-0.56 -0.34,-0.94 0,-0.48 0.19,-0.86 0.57,-1.14 0.39,-0.28 0.9,-0.42 1.55,-0.42l2.16 0 0 5.39zm-1.21 -2.98l0 0 0 -1.53 -0.85 0c-0.66,0 -0.98,0.25 -0.98,0.75 0,0.52 0.32,0.78 0.97,0.78l0.86 0z"/>
   <polygon fill="#0B74BA" fill-rule="nonzero" points="71.81,67.57 70.59,67.57 70.59,63.11 68.24,63.11 68.24,67.57 67.01,67.57 67.01,62.18 71.81,62.18 "/>
   <path fill="#0B74BA" fill-rule="nonzero" d="M77.37 67.57l-1.19 0 0 -0.84 -0.02 0c-0.37,0.65 -0.92,0.97 -1.64,0.97 -0.53,0 -0.94,-0.15 -1.24,-0.43 -0.3,-0.29 -0.45,-0.67 -0.45,-1.15 0,-1.01 0.59,-1.61 1.76,-1.78l1.6 -0.22c0,-0.77 -0.37,-1.15 -1.1,-1.15 -0.64,0 -1.22,0.22 -1.73,0.66l0 -1.07c0.56,-0.34 1.22,-0.5 1.96,-0.5 1.37,0 2.05,0.67 2.05,2.01l0 3.5zm-1.18 -2.65l0 0 -1.13 0.16c-0.35,0.05 -0.62,0.13 -0.8,0.26 -0.17,0.12 -0.26,0.34 -0.26,0.65 0,0.23 0.08,0.42 0.24,0.56 0.17,0.15 0.38,0.22 0.66,0.22 0.37,0 0.68,-0.13 0.92,-0.39 0.25,-0.26 0.37,-0.59 0.37,-0.99l0 -0.47z"/>
   <path fill="#0B74BA" fill-rule="nonzero" d="M83.14 67.57l-1.23 0 0 -4.46 -1.09 0c-0.16,1.67 -0.42,2.84 -0.8,3.52 -0.37,0.67 -0.87,1.01 -1.5,1.01 -0.21,0 -0.4,-0.03 -0.55,-0.09l0 -0.91c0.13,0.06 0.26,0.09 0.4,0.09 0.75,0 1.24,-1.52 1.45,-4.55l3.32 0 0 5.39z"/>
   <path fill="#0B74BA" fill-rule="nonzero" d="M88.69 67.57l-1.18 0 0 -0.84 -0.02 0c-0.37,0.65 -0.92,0.97 -1.64,0.97 -0.53,0 -0.94,-0.15 -1.24,-0.43 -0.3,-0.29 -0.45,-0.67 -0.45,-1.15 0,-1.01 0.58,-1.61 1.76,-1.78l1.6 -0.22c0,-0.77 -0.37,-1.15 -1.1,-1.15 -0.64,0 -1.22,0.22 -1.74,0.66l0 -1.07c0.57,-0.34 1.23,-0.5 1.97,-0.5 1.36,0 2.04,0.67 2.04,2.01l0 3.5zm-1.17 -2.65l0 0 -1.14 0.16c-0.35,0.05 -0.61,0.13 -0.79,0.26 -0.17,0.12 -0.26,0.34 -0.26,0.65 0,0.23 0.08,0.42 0.24,0.56 0.16,0.15 0.38,0.22 0.66,0.22 0.37,0 0.68,-0.13 0.92,-0.39 0.24,-0.26 0.37,-0.59 0.37,-0.99l0 -0.47z"/>
   <polygon fill="#0B74BA" fill-rule="nonzero" points="93.69,63.16 92.15,63.16 92.15,67.57 90.92,67.57 90.92,63.16 89.37,63.16 89.37,62.18 93.69,62.18 "/>
   <path fill="#0B74BA" fill-rule="nonzero" d="M98.61 67.57l-1.18 0 0 -0.84 -0.02 0c-0.37,0.65 -0.92,0.97 -1.64,0.97 -0.53,0 -0.94,-0.15 -1.24,-0.43 -0.3,-0.29 -0.45,-0.67 -0.45,-1.15 0,-1.01 0.58,-1.61 1.75,-1.78l1.6 -0.22c0,-0.77 -0.36,-1.15 -1.09,-1.15 -0.64,0 -1.22,0.22 -1.74,0.66l0 -1.07c0.57,-0.34 1.23,-0.5 1.97,-0.5 1.36,0 2.04,0.67 2.04,2.01l0 3.5zm-1.18 -2.65l0 0 -1.13 0.16c-0.35,0.05 -0.61,0.13 -0.79,0.26 -0.18,0.12 -0.27,0.34 -0.27,0.65 0,0.23 0.09,0.42 0.25,0.56 0.16,0.15 0.38,0.22 0.65,0.22 0.38,0 0.68,-0.13 0.93,-0.39 0.24,-0.26 0.36,-0.59 0.36,-0.99l0 -0.47z"/>
  </g>
 </g>
</svg>
