<?xml version="1.0" encoding="UTF-8"?>
<svg width="218px" height="98px" clip-rule="evenodd" fill-rule="evenodd" image-rendering="optimizeQuality" shape-rendering="geometricPrecision" text-rendering="geometricPrecision" version="1.1" viewBox="0 0 218 98" xml:space="preserve" xmlns="http://www.w3.org/2000/svg">
 




<g transform="translate(0,-2)"><path d="m0.95 32.02c0.51-15.23 12.77-27.49 28.01-28v28z" fill="#0b74ba"/><path d="m58.94 34c-0.51 15.23-12.77 27.49-28.01 28v-28z" fill="#6fb63c"/><g fill="#dae0e3"><path d="m30.93 4.02c15.24 0.51 27.5 12.77 28.01 28h-28.01z"/><path d="m0.95 91.98c15.24-0.51 27.5-12.77 28.01-28h-28.01z"/><polygon points="0.95 62 0.95 34 28.96 34 28.96 62"/></g><path d="m71.39 25.91v6.12h-4.04v-17.77h6.33c4.53 0 6.79 1.88 6.79 5.66 0 1.79-0.65 3.23-1.95 4.34-1.3 1.1-3.03 1.65-5.2 1.65zm0-8.58v5.54h1.59c2.15 0 3.23-0.93 3.23-2.8 0-1.83-1.08-2.74-3.23-2.74zm20.62 15.01c-2.57 0-4.66-0.83-6.28-2.48-1.62-1.66-2.43-3.82-2.43-6.48 0-2.81 0.82-5.08 2.47-6.82 1.64-1.73 3.82-2.61 6.53-2.61 2.56 0 4.64 0.84 6.22 2.5s2.37 3.85 2.37 6.57c0 2.79-0.82 5.05-2.46 6.76s-3.78 2.56-6.42 2.56zm0.18-14.94c-1.42 0-2.55 0.53-3.38 1.59-0.83 1.05-1.25 2.44-1.25 4.18 0 1.76 0.42 3.15 1.25 4.18 0.83 1.02 1.93 1.54 3.28 1.54 1.39 0 2.5-0.5 3.32-1.5 0.81-1 1.22-2.38 1.22-4.14 0-1.85-0.39-3.29-1.18-4.31-0.8-1.02-1.88-1.54-3.26-1.54zm25.98 14c-1.31 0.63-3.02 0.94-5.14 0.94-2.75 0-4.91-0.8-6.49-2.4s-2.37-3.74-2.37-6.41c0-2.85 0.89-5.15 2.66-6.92s4.08-2.66 6.91-2.66c1.75 0 3.23 0.22 4.43 0.67v3.85c-1.2-0.71-2.57-1.07-4.11-1.07-1.68 0-3.05 0.53-4.08 1.58s-1.55 2.47-1.55 4.27c0 1.71 0.49 3.08 1.46 4.1 0.98 1.02 2.29 1.54 3.95 1.54 1.57 0 3.02-0.39 4.33-1.15zm8.6-5.49v6.12h-4.05v-17.77h6.34c4.53 0 6.79 1.88 6.79 5.66 0 1.79-0.66 3.23-1.95 4.34-1.3 1.1-3.03 1.65-5.2 1.65zm0-8.58v5.54h1.59c2.15 0 3.23-0.93 3.23-2.8 0-1.83-1.08-2.74-3.23-2.74zm23.9 14.7h-10.77v-17.77h10.36v3.25h-6.31v3.96h5.87v3.25h-5.87v4.06h6.72zm15.07 0h-10.76v-17.77h10.35v3.25h-6.31v3.96h5.87v3.25h-5.87v4.06h6.72zm17.18-0.63c-1.31 0.63-3.02 0.94-5.13 0.94-2.75 0-4.92-0.8-6.5-2.4s-2.36-3.74-2.36-6.41c0-2.85 0.88-5.15 2.65-6.92 1.78-1.77 4.08-2.66 6.91-2.66 1.75 0 3.23 0.22 4.43 0.67v3.85c-1.2-0.71-2.57-1.07-4.11-1.07-1.68 0-3.04 0.53-4.08 1.58-1.03 1.05-1.55 2.47-1.55 4.27 0 1.71 0.49 3.08 1.47 4.1 0.97 1.02 2.29 1.54 3.94 1.54 1.58 0 3.02-0.39 4.33-1.15zm17.16-13.89h-5.12v14.52h-4.05v-14.52h-5.1v-3.25h14.27zm7.9 8.4v6.12h-4.05v-17.77h6.34c4.52 0 6.78 1.88 6.78 5.66 0 1.79-0.65 3.23-1.95 4.34-1.3 1.1-3.03 1.65-5.2 1.65zm0-8.58v5.54h1.59c2.15 0 3.23-0.93 3.23-2.8 0-1.83-1.08-2.74-3.23-2.74z" fill="#0b74ba"/><g><text x="118.77241" y="76.951721" fill="#000000" font-family="'Segoe UI'" font-size="8px" letter-spacing="0px" word-spacing="0px" style="line-height:1.25" xml:space="preserve"><tspan x="118.77241" y="84.157753"/></text>

<g fill="#0b74ba" style="font-feature-settings:normal;font-variant-caps:normal;font-variant-ligatures:normal;font-variant-numeric:normal" aria-label="филиал Федеральной кадастровой палаты по Нижегородской области"><path d="m69.619 47.658v2.3958h-1.1146v-2.3958h-0.17708q-1.2188 0-1.974-0.75-0.75-0.75-0.75-1.9635 0-1.276 0.76042-2.0417 0.76042-0.76562 2.0104-0.76562h0.13021v-2.1823h1.1146v2.1823h0.11979q1.2604 0 2.0208 0.76042 0.76042 0.76042 0.76042 2.0469 0 1.2135-0.75 1.9635-0.74479 0.75-1.9583 0.75zm0-4.6042v3.6927h0.09896q0.71354 0 1.1406-0.48958t0.42708-1.3281q0-0.88021-0.42188-1.375-0.41667-0.5-1.1198-0.5zm-1.1146 3.6927v-3.6927h-0.10938q-0.70312 0-1.1302 0.5t-0.42708 1.375q0 0.82812 0.42708 1.3229 0.42708 0.49479 1.1458 0.49479z"/><path d="m78.593 47.565h-1.0938v-3.9115q-0.10417 0.20833-0.31771 0.57812l-2.2448 3.3333h-1.1875v-5.3333h1.1094v3.8333q0.05729-0.13542 0.24479-0.46875l2.276-3.3646h1.2135z"/><path d="m84.578 47.565h-1.2135v-4.4115h-1.0885q-0.22917 2.474-0.78646 3.4792-0.55208 1-1.4896 1-0.3125 0-0.53646-0.08854v-0.90104q0.18229 0.08854 0.39062 0.08854 1.1198 0 1.4375-4.5h3.2865z"/><path d="m90.989 47.565h-1.0938v-3.9115q-0.10417 0.20833-0.31771 0.57812l-2.2448 3.3333h-1.1875v-5.3333h1.1094v3.8333q0.05729-0.13542 0.24479-0.46875l2.276-3.3646h1.2135z"/><path d="m96.656 47.565h-1.1719v-0.83333h-0.02083q-0.55208 0.95833-1.6198 0.95833-0.78646 0-1.2344-0.42708-0.44271-0.42708-0.44271-1.1302 0-1.5104 1.7396-1.7604l1.5833-0.22396q0-1.1406-1.0833-1.1406-0.95312 0-1.7188 0.65625v-1.0573q0.84375-0.5 1.9479-0.5 2.0208 0 2.0208 1.9896zm-1.1667-2.6198-1.1198 0.15625q-0.52083 0.06771-0.78646 0.25521-0.26042 0.18229-0.26042 0.64583 0 0.33854 0.23958 0.55729 0.24479 0.21354 0.65104 0.21354 0.55208 0 0.91146-0.38542 0.36458-0.39062 0.36458-0.97917z"/><path d="m102.54 47.565h-1.2135v-4.4115h-1.0885q-0.22917 2.474-0.78646 3.4792-0.55208 1-1.4896 1-0.3125 0-0.53646-0.08854v-0.90104q0.18229 0.08854 0.39062 0.08854 1.1198 0 1.4375-4.5h3.2865z"/><path d="m111.02 46.658v0.92708h-1.1823v-0.92708h-0.14583q-1.3021 0-2.151-0.85938-0.84896-0.86458-0.84896-2.125 0-1.2083 0.82813-2.0312 0.82812-0.82812 2.1198-0.82812h0.19791v-0.90104h1.1823v0.90104h0.15625q1.3229 0 2.151 0.8125 0.83333 0.8125 0.83333 2.0469 0 1.2448-0.84896 2.1146t-2.151 0.86979zm0-4.875v3.8802h0.11979q0.79166 0 1.2656-0.53646 0.47396-0.53646 0.47396-1.4323 0-0.85938-0.47396-1.3854-0.47396-0.52604-1.276-0.52604zm-1.1823 3.8802v-3.8802h-0.11458q-0.78646 0-1.2708 0.53646-0.47917 0.53125-0.47917 1.375 0 0.90104 0.47396 1.4375 0.47917 0.53125 1.2656 0.53125z"/><path d="m119.85 45.226h-3.6354q0.0208 0.73958 0.45313 1.1406 0.4375 0.40104 1.1979 0.40104 0.85417 0 1.5677-0.51042v0.97396q-0.72917 0.45833-1.9271 0.45833-1.1771 0-1.849-0.72396-0.66667-0.72917-0.66667-2.0469 0-1.2448 0.73438-2.026 0.73958-0.78646 1.8333-0.78646t1.6927 0.70312 0.59896 1.9531zm-1.1667-0.85417q-5e-3 -0.65104-0.30729-1.0104-0.30208-0.36458-0.83333-0.36458-0.52084 0-0.88542 0.38021-0.35938 0.38021-0.44271 0.99479z"/><path d="m126.1 49.507h-1.0052v-1.9427h-3.7969v1.9427h-0.99479v-2.8646h0.47396q1.276-1.8854 1.2969-4.4115h3.2083v4.4115h0.81771zm-2.026-2.8646v-3.4948h-1.0156q-0.125 1.9375-1.0625 3.4948z"/><path d="m131.7 45.226h-3.6354q0.0208 0.73958 0.45312 1.1406 0.4375 0.40104 1.1979 0.40104 0.85417 0 1.5677-0.51042v0.97396q-0.72917 0.45833-1.9271 0.45833-1.1771 0-1.849-0.72396-0.66667-0.72917-0.66667-2.0469 0-1.2448 0.73438-2.026 0.73958-0.78646 1.8333-0.78646t1.6927 0.70312 0.59896 1.9531zm-1.1667-0.85417q-5e-3 -0.65104-0.30729-1.0104-0.30209-0.36458-0.83334-0.36458-0.52083 0-0.88541 0.38021-0.35938 0.38021-0.44271 0.99479z"/><path d="m134.08 46.778h-0.0208v3.2396h-1.2083v-7.7865h1.2083v0.9375h0.0208q0.6198-1.0625 1.8125-1.0625 1.0156 0 1.5833 0.71354t0.56771 1.9167q0 1.3333-0.64063 2.1354-0.64062 0.80208-1.75 0.80208-1.0208 0-1.5729-0.89583zm-0.0312-2.1042v0.66146q0 0.58333 0.3698 0.98958 0.375 0.40625 0.94791 0.40625 0.67188 0 1.0521-0.52083 0.38541-0.52604 0.38541-1.4635 0-0.78646-0.35937-1.2292-0.35417-0.44792-0.96354-0.44792-0.64584 0-1.0417 0.45833-0.39063 0.45833-0.39063 1.1458z"/><path d="m143.38 47.565h-1.1719v-0.83333h-0.0208q-0.55208 0.95833-1.6198 0.95833-0.78646 0-1.2344-0.42708-0.44271-0.42708-0.44271-1.1302 0-1.5104 1.7396-1.7604l1.5833-0.22396q0-1.1406-1.0833-1.1406-0.95313 0-1.7188 0.65625v-1.0573q0.84375-0.5 1.9479-0.5 2.0208 0 2.0208 1.9896zm-1.1667-2.6198-1.1198 0.15625q-0.52083 0.06771-0.78646 0.25521-0.26042 0.18229-0.26042 0.64583 0 0.33854 0.23959 0.55729 0.24479 0.21354 0.65104 0.21354 0.55208 0 0.91146-0.38542 0.36458-0.39062 0.36458-0.97917z"/><path d="m149.27 47.565h-1.2136v-4.4115h-1.0885q-0.22916 2.474-0.78646 3.4792-0.55208 1-1.4896 1-0.3125 0-0.53646-0.08854v-0.90104q0.18229 0.08854 0.39063 0.08854 1.1198 0 1.4375-4.5h3.2865z"/><path d="m150.83 47.565v-5.3333h1.2083v1.9688h1.4219q0.84896 0 1.3438 0.4375 0.5 0.43229 0.5 1.2083 0 0.79688-0.5 1.2604-0.49479 0.45833-1.2552 0.45833zm1.2083-2.4948v1.625h1.1042q0.91667 0 0.91667-0.83854 0-0.78646-0.92708-0.78646z"/><path d="m161.23 47.565h-1.2135v-2.3333h-2.3229v2.3333h-1.2135v-5.3333h1.2135v2.0938h2.3229v-2.0938h1.2135z"/><path d="m165.18 47.69q-1.2344 0-1.974-0.74479-0.73438-0.75-0.73438-1.9844 0-1.3438 0.76563-2.099 0.77083-0.75521 2.0729-0.75521 1.25 0 1.9479 0.73438 0.69792 0.73438 0.69792 2.0365 0 1.276-0.75521 2.0469-0.75 0.76562-2.0208 0.76562zm0.0573-4.6198q-0.70833 0-1.1198 0.49479-0.41146 0.49479-0.41146 1.3646 0 0.83854 0.41667 1.3229 0.41666 0.47917 1.1146 0.47917 0.71354 0 1.0938-0.47396 0.38542-0.47396 0.38542-1.349 0-0.88021-0.38542-1.3594-0.38021-0.47917-1.0938-0.47917z"/><path d="m174.03 47.565h-1.0938v-3.9115q-0.10416 0.20833-0.3177 0.57812l-2.2448 3.3333h-1.1875v-5.3333h1.1094v3.8333q0.0573-0.13542 0.24479-0.46875l2.276-3.3646h1.2135zm-0.34895-7.901q-0.0833 0.78125-0.64584 1.2344-0.55729 0.44792-1.401 0.44792-0.86458 0-1.4115-0.44792-0.54166-0.45312-0.59375-1.2344h1.0052q0.0729 0.94792 1.0156 0.94792 0.41666 0 0.6875-0.25 0.27604-0.25 0.33854-0.69792z"/><path d="m66.27 60.898h-1.5365l-2.0729-2.599h-0.02083v2.599h-1.2135v-5.3333h1.2135v2.4531h0.02083l1.9583-2.4531h1.4792l-2.2188 2.5417z"/><path d="m71.124 60.898h-1.1719v-0.83333h-0.02083q-0.55208 0.95833-1.6198 0.95833-0.78646 0-1.2344-0.42708-0.44271-0.42708-0.44271-1.1302 0-1.5104 1.7396-1.7604l1.5833-0.22396q0-1.1406-1.0833-1.1406-0.95312 0-1.7188 0.65625v-1.0573q0.84375-0.5 1.9479-0.5 2.0208 0 2.0208 1.9896zm-1.1667-2.6198-1.1198 0.15625q-0.52083 0.06771-0.78646 0.25521-0.26042 0.18229-0.26042 0.64583 0 0.33854 0.23958 0.55729 0.24479 0.21354 0.65104 0.21354 0.55208 0 0.91146-0.38542 0.36458-0.39062 0.36458-0.97917z"/><path d="m77.697 62.841h-1.0052v-1.9427h-3.7969v1.9427h-0.99479v-2.8646h0.47396q1.276-1.8854 1.2969-4.4115h3.2083v4.4115h0.81771zm-2.026-2.8646v-3.4948h-1.0156q-0.125 1.9375-1.0625 3.4948z"/><path d="m82.874 60.898h-1.1719v-0.83333h-0.02083q-0.55208 0.95833-1.6198 0.95833-0.78646 0-1.2344-0.42708-0.44271-0.42708-0.44271-1.1302 0-1.5104 1.7396-1.7604l1.5833-0.22396q0-1.1406-1.0833-1.1406-0.95312 0-1.7188 0.65625v-1.0573q0.84375-0.5 1.9479-0.5 2.0208 0 2.0208 1.9896zm-1.1667-2.6198-1.1198 0.15625q-0.52083 0.06771-0.78646 0.25521-0.26042 0.18229-0.26042 0.64583 0 0.33854 0.23958 0.55729 0.24479 0.21354 0.65104 0.21354 0.55208 0 0.91146-0.38542 0.36458-0.39062 0.36458-0.97917z"/><path d="m88.161 60.653q-0.64062 0.36979-1.5156 0.36979-1.1875 0-1.9167-0.73958-0.72917-0.74479-0.72917-1.9271 0-1.3177 0.78125-2.1146 0.78646-0.80208 2.099-0.80208 0.72917 0 1.2865 0.25521v1.125q-0.55729-0.41667-1.1875-0.41667-0.76562 0-1.2552 0.52083-0.48958 0.51562-0.48958 1.3542 0 0.82812 0.45833 1.3073 0.46354 0.47917 1.2396 0.47917 0.65104 0 1.2292-0.46354z"/><path d="m92.999 56.528h-1.5208v4.3698h-1.2135v-4.3698h-1.5312v-0.96354h4.2656z"/><path d="m95.177 60.112h-0.02083v3.2396h-1.2083v-7.7865h1.2083v0.9375h0.02083q0.61979-1.0625 1.8125-1.0625 1.0156 0 1.5833 0.71354 0.56771 0.71354 0.56771 1.9167 0 1.3333-0.64062 2.1354-0.64062 0.80208-1.75 0.80208-1.0208 0-1.5729-0.89583zm-0.03125-2.1042v0.66146q0 0.58333 0.36979 0.98958 0.375 0.40625 0.94792 0.40625 0.67188 0 1.0521-0.52083 0.38542-0.52604 0.38542-1.4635 0-0.78646-0.35938-1.2292-0.35417-0.44792-0.96354-0.44792-0.64583 0-1.0417 0.45833-0.39062 0.45833-0.39062 1.1458z"/><path d="m102.75 61.023q-1.2344 0-1.974-0.74479-0.73437-0.75-0.73437-1.9844 0-1.3438 0.76562-2.099 0.77084-0.75521 2.0729-0.75521 1.25 0 1.9479 0.73438 0.69791 0.73438 0.69791 2.0365 0 1.276-0.75521 2.0469-0.75 0.76562-2.0208 0.76562zm0.0573-4.6198q-0.70833 0-1.1198 0.49479-0.41146 0.49479-0.41146 1.3646 0 0.83854 0.41667 1.3229 0.41667 0.47917 1.1146 0.47917 0.71354 0 1.0938-0.47396 0.38542-0.47396 0.38542-1.349 0-0.88021-0.38542-1.3594-0.38021-0.47917-1.0938-0.47917z"/><path d="m106.76 60.898v-5.3333h2.5469q0.85938 0 1.3594 0.34896 0.5 0.34896 0.5 0.95312 0 1.0208-1.0469 1.2396 1.2448 0.15625 1.2448 1.2292 0 0.66146-0.52604 1.1146-0.52604 0.44792-1.3073 0.44792zm1.2083-4.4792v1.3281h1.0677q0.90625 0 0.90625-0.70312 0-0.625-0.79167-0.625zm0 2.1667v1.4531h1.2396q0.92709 0 0.92709-0.75 0-0.70312-1.0052-0.70312z"/><path d="m115.02 61.023q-1.2344 0-1.974-0.74479-0.73438-0.75-0.73438-1.9844 0-1.3438 0.76563-2.099 0.77083-0.75521 2.0729-0.75521 1.25 0 1.9479 0.73438t0.69792 2.0365q0 1.276-0.75521 2.0469-0.75 0.76562-2.0208 0.76562zm0.0573-4.6198q-0.70834 0-1.1198 0.49479-0.41145 0.49479-0.41145 1.3646 0 0.83854 0.41666 1.3229 0.41667 0.47917 1.1146 0.47917 0.71354 0 1.0938-0.47396 0.38541-0.47396 0.38541-1.349 0-0.88021-0.38541-1.3594-0.38021-0.47917-1.0938-0.47917z"/><path d="m123.87 60.898h-1.0938v-3.9115q-0.10417 0.20833-0.31771 0.57812l-2.2448 3.3333h-1.1875v-5.3333h1.1094v3.8333q0.0573-0.13542 0.24479-0.46875l2.276-3.3646h1.2135zm-0.34896-7.901q-0.0833 0.78125-0.64583 1.2344-0.55729 0.44792-1.401 0.44792-0.86459 0-1.4115-0.44792-0.54167-0.45312-0.59375-1.2344h1.0052q0.0729 0.94792 1.0156 0.94792 0.41667 0 0.6875-0.25 0.27604-0.25 0.33854-0.69792z"/><path d="m133.13 60.898h-1.2135v-4.4115h-2.3229v4.4115h-1.2135v-5.3333h4.75z"/><path d="m138.81 60.898h-1.1719v-0.83333h-0.0208q-0.55209 0.95833-1.6198 0.95833-0.78645 0-1.2344-0.42708-0.44271-0.42708-0.44271-1.1302 0-1.5104 1.7396-1.7604l1.5833-0.22396q0-1.1406-1.0833-1.1406-0.95312 0-1.7188 0.65625v-1.0573q0.84375-0.5 1.9479-0.5 2.0208 0 2.0208 1.9896zm-1.1667-2.6198-1.1198 0.15625q-0.52084 0.06771-0.78646 0.25521-0.26042 0.18229-0.26042 0.64583 0 0.33854 0.23958 0.55729 0.2448 0.21354 0.65105 0.21354 0.55208 0 0.91145-0.38542 0.36459-0.39062 0.36459-0.97917z"/><path d="m144.69 60.898h-1.2135v-4.4115h-1.0885q-0.22917 2.474-0.78646 3.4792-0.55208 1-1.4896 1-0.3125 0-0.53646-0.08854v-0.90104q0.18229 0.08854 0.39062 0.08854 1.1198 0 1.4375-4.5h3.2865z"/><path d="m150.35 60.898h-1.1719v-0.83333h-0.0208q-0.55208 0.95833-1.6198 0.95833-0.78646 0-1.2344-0.42708-0.44271-0.42708-0.44271-1.1302 0-1.5104 1.7396-1.7604l1.5833-0.22396q0-1.1406-1.0833-1.1406-0.95313 0-1.7188 0.65625v-1.0573q0.84375-0.5 1.9479-0.5 2.0208 0 2.0208 1.9896zm-1.1667-2.6198-1.1198 0.15625q-0.52083 0.06771-0.78646 0.25521-0.26042 0.18229-0.26042 0.64583 0 0.33854 0.23959 0.55729 0.24479 0.21354 0.65104 0.21354 0.55208 0 0.91146-0.38542 0.36458-0.39062 0.36458-0.97917z"/><path d="m155.46 56.528h-1.5208v4.3698h-1.2135v-4.3698h-1.5312v-0.96354h4.2656z"/><path d="m162.9 60.898h-1.2083v-5.3333h1.2083zm-6.4948 0v-5.3333h1.2083v1.9688h1.4583q0.82813 0 1.3177 0.4375 0.48958 0.43229 0.48958 1.2083 0 0.79688-0.51041 1.2604-0.50521 0.45833-1.276 0.45833zm1.2083-2.4948v1.625h1.1042q0.91667 0 0.91667-0.83854 0-0.78646-0.92708-0.78646z"/><path d="m172.18 60.898h-1.2135v-4.4115h-2.3229v4.4115h-1.2135v-5.3333h4.75z"/><path d="m176.12 61.023q-1.2344 0-1.974-0.74479-0.73437-0.75-0.73437-1.9844 0-1.3438 0.76562-2.099 0.77084-0.75521 2.0729-0.75521 1.25 0 1.9479 0.73438 0.69791 0.73438 0.69791 2.0365 0 1.276-0.75521 2.0469-0.75 0.76562-2.0208 0.76562zm0.0573-4.6198q-0.70833 0-1.1198 0.49479-0.41146 0.49479-0.41146 1.3646 0 0.83854 0.41667 1.3229 0.41667 0.47917 1.1146 0.47917 0.71354 0 1.0938-0.47396 0.38542-0.47396 0.38542-1.349 0-0.88021-0.38542-1.3594-0.38021-0.47917-1.0938-0.47917z"/><path d="m64.624 74.231h-1.2448v-3.2396h-3.5156v3.2396h-1.2396v-7.4688h1.2396v3.1406h3.5156v-3.1406h1.2448z"/><path d="m71.187 74.231h-1.0938v-3.9115q-0.10417 0.20833-0.31771 0.57812l-2.2448 3.3333h-1.1875v-5.3333h1.1094v3.8333q0.05729-0.13542 0.24479-0.46875l2.276-3.3646h1.2135z"/><path d="m80.4 74.231h-1.5104l-2.0833-2.651h-0.02083v2.651h-1.1771v-2.651h-0.01563l-2.0885 2.651h-1.5l2.3646-2.7708-2.2552-2.5625h1.4688l2.0052 2.5104h0.02083v-2.5104h1.1771v2.5104h0.02083l2.0052-2.5104h1.4688l-2.2604 2.5625z"/><path d="m85.734 71.893h-3.6354q0.02083 0.73958 0.45312 1.1406 0.4375 0.40104 1.1979 0.40104 0.85417 0 1.5677-0.51042v0.97396q-0.72917 0.45833-1.9271 0.45833-1.1771 0-1.849-0.72396-0.66667-0.72917-0.66667-2.0469 0-1.2448 0.73438-2.026 0.73958-0.78646 1.8333-0.78646t1.6927 0.70312q0.59896 0.70312 0.59896 1.9531zm-1.1667-0.85417q-0.0052-0.65104-0.30729-1.0104-0.30208-0.36458-0.83333-0.36458-0.52083 0-0.88542 0.38021-0.35938 0.38021-0.44271 0.99479z"/><path d="m90.083 69.862h-1.9844v4.3698h-1.2135v-5.3333h3.1979z"/><path d="m93.458 74.356q-1.2344 0-1.974-0.74479-0.73438-0.75-0.73438-1.9844 0-1.3438 0.76562-2.099 0.77083-0.75521 2.0729-0.75521 1.25 0 1.9479 0.73438 0.69792 0.73438 0.69792 2.0365 0 1.276-0.75521 2.0469-0.75 0.76562-2.0208 0.76562zm0.05729-4.6198q-0.70833 0-1.1198 0.49479-0.41146 0.49479-0.41146 1.3646 0 0.83854 0.41667 1.3229 0.41667 0.47917 1.1146 0.47917 0.71354 0 1.0938-0.47396 0.38542-0.47396 0.38542-1.349 0-0.88021-0.38542-1.3594-0.38021-0.47917-1.0938-0.47917z"/><path d="m98.697 73.445h-0.02083v3.2396h-1.2083v-7.7865h1.2083v0.9375h0.02083q0.61979-1.0625 1.8125-1.0625 1.0156 0 1.5833 0.71354 0.56771 0.71354 0.56771 1.9167 0 1.3333-0.64063 2.1354-0.64062 0.80208-1.75 0.80208-1.0208 0-1.5729-0.89583zm-0.03125-2.1042v0.66146q0 0.58333 0.36979 0.98958 0.375 0.40625 0.94792 0.40625 0.67188 0 1.0521-0.52083 0.38542-0.52604 0.38542-1.4635 0-0.78646-0.35938-1.2292-0.35417-0.44792-0.96354-0.44792-0.64584 0-1.0417 0.45833-0.39062 0.45833-0.39062 1.1458z"/><path d="m106.27 74.356q-1.2344 0-1.974-0.74479-0.73437-0.75-0.73437-1.9844 0-1.3438 0.76562-2.099 0.77084-0.75521 2.0729-0.75521 1.25 0 1.9479 0.73438t0.69792 2.0365q0 1.276-0.75521 2.0469-0.75 0.76562-2.0208 0.76562zm0.0573-4.6198q-0.70834 0-1.1198 0.49479-0.41146 0.49479-0.41146 1.3646 0 0.83854 0.41667 1.3229 0.41667 0.47917 1.1146 0.47917 0.71354 0 1.0938-0.47396 0.38541-0.47396 0.38541-1.349 0-0.88021-0.38541-1.3594-0.38021-0.47917-1.0938-0.47917z"/><path d="m115.38 76.174h-1.0052v-1.9427h-3.7969v1.9427h-0.99479v-2.8646h0.47396q1.276-1.8854 1.2969-4.4115h3.2083v4.4115h0.81771zm-2.026-2.8646v-3.4948h-1.0156q-0.125 1.9375-1.0625 3.4948z"/><path d="m120.29 73.987q-0.64063 0.36979-1.5156 0.36979-1.1875 0-1.9167-0.73958-0.72917-0.74479-0.72917-1.9271 0-1.3177 0.78125-2.1146 0.78646-0.80208 2.099-0.80208 0.72917 0 1.2865 0.25521v1.125q-0.55729-0.41667-1.1875-0.41667-0.76563 0-1.2552 0.52083-0.48959 0.51562-0.48959 1.3542 0 0.82812 0.45834 1.3073 0.46354 0.47917 1.2396 0.47917 0.65104 0 1.2292-0.46354z"/><path d="m126.33 74.231h-1.5365l-2.0729-2.599h-0.0208v2.599h-1.2135v-5.3333h1.2135v2.4531h0.0208l1.9583-2.4531h1.4792l-2.2188 2.5417z"/><path d="m129.46 74.356q-1.2344 0-1.974-0.74479-0.73438-0.75-0.73438-1.9844 0-1.3438 0.76563-2.099 0.77083-0.75521 2.0729-0.75521 1.25 0 1.9479 0.73438 0.69792 0.73438 0.69792 2.0365 0 1.276-0.75521 2.0469-0.75 0.76562-2.0208 0.76562zm0.0573-4.6198q-0.70833 0-1.1198 0.49479-0.41146 0.49479-0.41146 1.3646 0 0.83854 0.41667 1.3229 0.41666 0.47917 1.1146 0.47917 0.71354 0 1.0938-0.47396 0.38542-0.47396 0.38542-1.349 0-0.88021-0.38542-1.3594-0.38021-0.47917-1.0938-0.47917z"/><path d="m138.31 74.231h-1.0938v-3.9115q-0.10416 0.20833-0.3177 0.57812l-2.2448 3.3333h-1.1875v-5.3333h1.1094v3.8333q0.0573-0.13542 0.24479-0.46875l2.276-3.3646h1.2135zm-0.34895-7.901q-0.0833 0.78125-0.64584 1.2344-0.55729 0.44792-1.401 0.44792-0.86458 0-1.4115-0.44792-0.54166-0.45312-0.59375-1.2344h1.0052q0.0729 0.94792 1.0156 0.94792 0.41666 0 0.6875-0.25 0.27604-0.25 0.33854-0.69792z"/><path d="m145.19 74.356q-1.2344 0-1.974-0.74479-0.73437-0.75-0.73437-1.9844 0-1.3438 0.76562-2.099 0.77084-0.75521 2.0729-0.75521 1.25 0 1.9479 0.73438 0.69791 0.73438 0.69791 2.0365 0 1.276-0.75521 2.0469-0.75 0.76562-2.0208 0.76562zm0.0573-4.6198q-0.70833 0-1.1198 0.49479-0.41146 0.49479-0.41146 1.3646 0 0.83854 0.41667 1.3229 0.41667 0.47917 1.1146 0.47917 0.71354 0 1.0938-0.47396 0.38542-0.47396 0.38542-1.349 0-0.88021-0.38542-1.3594-0.38021-0.47917-1.0938-0.47917z"/><path d="m153.59 66.247v1.026q-0.20833 0.14062-0.67187 0.20833-1.1458 0.16146-1.6042 0.3125-0.45312 0.14583-0.74479 0.63021-0.29167 0.47917-0.375 1.4063h0.0208q0.59375-0.80208 1.6979-0.80208 1.0677 0 1.7188 0.71354 0.65104 0.70833 0.65104 1.875 0 1.2396-0.72396 1.9896-0.71875 0.75-1.9427 0.75-1.2917 0-1.9896-0.88021-0.69271-0.88021-0.69271-2.5156 0-1.2604 0.25521-2.1354t0.70833-1.3177q0.45313-0.44271 1.0052-0.60938 0.55209-0.16667 1.8958-0.39062 0.53125-0.11458 0.79166-0.26042zm-3.4115 4.5677v0.66667q5e-3 0.36979 0.10938 0.73438 0.10417 0.35938 0.29687 0.63542 0.19271 0.27604 0.45834 0.41146 0.26562 0.13542 0.60416 0.13542 0.625 0 1.0104-0.47396 0.39063-0.47917 0.39063-1.224 0-0.79688-0.39584-1.2656-0.39062-0.47396-1.0625-0.47396-0.9375 0-1.4115 0.85417z"/><path d="m159.92 74.231h-1.2136v-4.4115h-1.0885q-0.22916 2.474-0.78646 3.4792-0.55208 1-1.4896 1-0.3125 0-0.53646-0.08854v-0.90104q0.18229 0.08854 0.39063 0.08854 1.1198 0 1.4375-4.5h3.2865z"/><path d="m165.58 74.231h-1.1719v-0.83333h-0.0208q-0.55208 0.95833-1.6198 0.95833-0.78646 0-1.2344-0.42708-0.44271-0.42708-0.44271-1.1302 0-1.5104 1.7396-1.7604l1.5833-0.22396q0-1.1406-1.0833-1.1406-0.95312 0-1.7188 0.65625v-1.0573q0.84375-0.5 1.9479-0.5 2.0208 0 2.0208 1.9896zm-1.1667-2.6198-1.1198 0.15625q-0.52083 0.06771-0.78645 0.25521-0.26042 0.18229-0.26042 0.64583 0 0.33854 0.23958 0.55729 0.24479 0.21354 0.65104 0.21354 0.55209 0 0.91146-0.38542 0.36459-0.39062 0.36459-0.97917z"/><path d="m170.87 73.987q-0.64062 0.36979-1.5156 0.36979-1.1875 0-1.9167-0.73958-0.72917-0.74479-0.72917-1.9271 0-1.3177 0.78125-2.1146 0.78646-0.80208 2.099-0.80208 0.72917 0 1.2865 0.25521v1.125q-0.55729-0.41667-1.1875-0.41667-0.76563 0-1.2552 0.52083-0.48958 0.51562-0.48958 1.3542 0 0.82812 0.45833 1.3073 0.46354 0.47917 1.2396 0.47917 0.65105 0 1.2292-0.46354z"/><path d="m175.71 69.862h-1.5208v4.3698h-1.2135v-4.3698h-1.5312v-0.96354h4.2656z"/><path d="m181.5 74.231h-1.0938v-3.9115q-0.10416 0.20833-0.3177 0.57812l-2.2448 3.3333h-1.1875v-5.3333h1.1094v3.8333q0.0573-0.13542 0.24479-0.46875l2.276-3.3646h1.2135z"/></g><g fill="#6fb63c" aria-label="Внутренний портал"><path d="m90.256 94.291v-9.3359h3.3984q1.5625 0 2.4023 0.57292 0.83984 0.57292 0.83984 1.6146 0 0.75521-0.51432 1.3216-0.50781 0.56641-1.3021 0.78776v0.02604q0.99609 0.1237 1.5885 0.73568 0.59896 0.61198 0.59896 1.4909 0 1.2826-0.91797 2.0378-0.91797 0.7487-2.5065 0.7487zm2.1029-7.7865v2.2135h0.92448q0.65104 0 1.0221-0.3125 0.3776-0.31901 0.3776-0.8724 0-1.0286-1.5365-1.0286zm0 3.776v2.4609h1.1393q0.72917 0 1.1393-0.33854 0.41667-0.33854 0.41667-0.92448 0-0.5599-0.41016-0.87891-0.40364-0.31901-1.1328-0.31901z"/><path d="m105.02 94.291h-2.0638v-2.7865h-2.3047v2.7865h-2.0573v-6.6667h2.0573v2.4674h2.3047v-2.4674h2.0638z"/><path d="m113.09 87.624-2.7083 7.2005q-0.97656 2.5977-2.9427 2.5977-0.74869 0-1.2305-0.16927v-1.6406q0.41016 0.24088 0.89193 0.24088 0.79427 0 1.1068-0.7487l0.35157-0.82682-2.7083-6.6536h2.2786l1.2435 4.056q0.11718 0.3776 0.18229 0.89193h0.026q0.0586-0.3776 0.21484-0.87891l1.2565-4.069z"/><path d="m118.92 89.187h-1.7839v5.1042h-2.0703v-5.1042h-1.7969v-1.5625h5.651z"/><path d="m122.09 93.516h-0.026v3.8411h-2.0573v-9.7331h2.0573v1.0026h0.026q0.76172-1.1654 2.1419-1.1654 1.2956 0 1.9987 0.89193 0.70964 0.88542 0.70964 2.4154 0 1.6667-0.82682 2.6758-0.82032 1.0091-2.1875 1.0091-1.2044 0-1.8359-0.9375zm-0.0586-2.7344v0.53386q0 0.6901 0.36458 1.1263t0.95703 0.4362q0.70313 0 1.0872-0.54036 0.39062-0.54688 0.39062-1.543 0-1.7578-1.3672-1.7578-0.63151 0-1.0352 0.48177-0.39713 0.47526-0.39713 1.263z"/><path d="m134.27 91.543h-4.349q0.10417 1.4518 1.8294 1.4518 1.1003 0 1.9336-0.52083v1.4844q-0.92448 0.49479-2.4023 0.49479-1.6146 0-2.5065-0.89193-0.89193-0.89844-0.89193-2.5 0-1.6602 0.96354-2.6302t2.3698-0.97005q1.4583 0 2.2526 0.86588 0.80078 0.86589 0.80078 2.3503zm-1.9076-1.263q0-1.4323-1.1589-1.4323-0.49479 0-0.85937 0.41016-0.35807 0.41016-0.4362 1.0221z"/><path d="m141.92 94.291h-2.0638v-2.7865h-2.3047v2.7865h-2.0573v-6.6667h2.0573v2.4674h2.3047v-2.4674h2.0638z"/><path d="m150.07 94.291h-2.0638v-2.7865h-2.3047v2.7865h-2.0573v-6.6667h2.0573v2.4674h2.3047v-2.4674h2.0638z"/><path d="m158.43 94.291h-1.8685v-4.362q-0.25391 0.51432-0.54688 0.95052l-2.2656 3.4115h-1.9466v-6.6667h1.8815v4.2253q0.20833-0.4362 0.45573-0.8138l2.2656-3.4115h2.0247z"/><path d="m166.79 94.291h-1.8685v-4.362q-0.25391 0.51432-0.54687 0.95052l-2.2656 3.4115h-1.9466v-6.6667h1.8815v4.2253q0.20833-0.4362 0.45573-0.8138l2.2656-3.4115h2.0247zm-0.48177-9.8503q-0.11719 1.0352-0.89193 1.6471t-1.9206 0.61198q-1.1654 0-1.9401-0.61198-0.77474-0.61198-0.83334-1.6471h1.4974q0.0325 0.5013 0.41015 0.82682 0.37761 0.31901 0.89193 0.31901 0.50781 0 0.87891-0.32552 0.37109-0.32552 0.41015-0.82031z"/><path d="m178.62 94.291h-2.0638v-5.2148h-2.3047v5.2148h-2.0573v-6.6667h6.4258z"/><path d="m183.52 94.454q-1.6667 0-2.6237-0.93099-0.95052-0.9375-0.95052-2.5391 0-1.6536 0.98958-2.5846 0.98959-0.9375 2.6758-0.9375 1.6602 0 2.6042 0.9375 0.94401 0.93099 0.94401 2.4674 0 1.6602-0.97656 2.6237-0.97005 0.96354-2.6628 0.96354zm0.0521-5.4167q-0.72916 0-1.1328 0.5013t-0.40365 1.4193q0 1.9206 1.5495 1.9206 1.4779 0 1.4779-1.9727 0-1.8685-1.4909-1.8685z"/><path d="m190.57 93.516h-0.026v3.8411h-2.0573v-9.7331h2.0573v1.0026h0.026q0.76172-1.1654 2.1419-1.1654 1.2956 0 1.9987 0.89193 0.70964 0.88542 0.70964 2.4154 0 1.6667-0.82683 2.6758-0.82031 1.0091-2.1875 1.0091-1.2044 0-1.8359-0.9375zm-0.0586-2.7344v0.53386q0 0.6901 0.36459 1.1263 0.36458 0.4362 0.95703 0.4362 0.70312 0 1.0872-0.54036 0.39062-0.54688 0.39062-1.543 0-1.7578-1.3672-1.7578-0.63152 0-1.0352 0.48177-0.39714 0.47526-0.39714 1.263z"/><path d="m201.76 89.187h-1.7838v5.1042h-2.0703v-5.1042h-1.7969v-1.5625h5.651z"/><path d="m208.39 94.291h-1.9466v-0.95703h-0.026q-0.67057 1.1198-1.9857 1.1198-0.97006 0-1.53-0.54688-0.55339-0.55338-0.55339-1.4714 0-1.9401 2.2982-2.2396l1.8099-0.24088q0-1.0938-1.1849-1.0938-1.1914 0-2.2656 0.70964v-1.5495q0.42968-0.22135 1.1719-0.39062 0.7487-0.16927 1.3607-0.16927 2.8516 0 2.8516 2.8451zm-1.9336-2.7083v-0.44922l-1.2109 0.15625q-1.0026 0.13021-1.0026 0.90495 0 0.35156 0.24089 0.57943 0.2474 0.22135 0.66406 0.22135 0.57943 0 0.94401-0.39714 0.36459-0.40365 0.36459-1.0156z"/><path d="m216.34 94.291h-2.0703v-5.2148h-1.1328q-0.35807 3.0273-1.0742 4.1602-0.70964 1.1328-1.9922 1.1328-0.44271 0-0.80078-0.13021v-1.3997q0.22786 0.10417 0.48177 0.10417 0.61198 0 1.0156-1.1393 0.40365-1.1393 0.72917-4.1797h4.8438z"/></g></g></g>

</svg>
